<?xml version="1.0" encoding="utf-8" ?>
<!DOCTYPE svg PUBLIC "-//W3C//DTD SVG 1.1//EN" "http://www.w3.org/Graphics/SVG/1.1/DTD/svg11.dtd">
<svg height="652" version="1.1" width="1012" xmlns="http://www.w3.org/2000/svg">
<text font-family="Dialog" font-size="12" x="18" y="373">
A01: Item Mapper</text>
<ellipse cx="65" cy="321" fill="#000000" rx="8.0" ry="7.5" stroke="#000000" stroke-width="1"/>
<ellipse cx="65" cy="321" fill="#ffffff" rx="7.0" ry="6.5" stroke="#ffffff" stroke-width="1"/>
<line fill="#000000" stroke="#000000" stroke-width="1" x1="65" x2="65" y1="329" y2="344"/>
<line fill="#000000" stroke="#000000" stroke-width="1" x1="55" x2="75" y1="334" y2="334"/>
<line fill="#000000" stroke="#000000" stroke-width="1" x1="65" x2="60" y1="344" y2="359"/>
<line fill="#000000" stroke="#000000" stroke-width="1" x1="65" x2="70" y1="344" y2="359"/>
<rect fill="#ffffff" height="584" stroke="#ffffff" stroke-width="1" width="720" x="278" y="54"/>
<rect fill="none" height="584" stroke="#000000" stroke-width="1" width="720" x="278" y="54"/>
<ellipse cx="349" cy="109" fill="#000000" rx="55.0" ry="21.0" stroke="#000000" stroke-width="1"/>
<ellipse cx="349" cy="109" fill="#ffffff" rx="54.0" ry="20.0" stroke="#ffffff" stroke-width="1"/>
<text font-family="Dialog" font-size="12" x="314" y="110">
UC01: Login</text>
<polyline fill="none" points="72,316 323,127" stroke="#000000" stroke-width="1"/>
<line fill="#000000" stroke="#000000" stroke-width="1" x1="317" x2="323" y1="139" y2="127"/>
<line fill="#000000" stroke="#000000" stroke-width="1" x1="309" x2="323" y1="128" y2="127"/>
<ellipse cx="382" cy="186" fill="#000000" rx="88.0" ry="28.0" stroke="#000000" stroke-width="1"/>
<ellipse cx="382" cy="186" fill="#ffffff" rx="87.0" ry="27.0" stroke="#ffffff" stroke-width="1"/>
<text font-family="Dialog" font-size="12" x="308" y="187">
UC03: Submit New Record</text>
<polyline fill="none" points="73,318 329,208" stroke="#000000" stroke-width="1"/>
<line fill="#000000" stroke="#000000" stroke-width="1" x1="320" x2="329" y1="219" y2="208"/>
<line fill="#000000" stroke="#000000" stroke-width="1" x1="315" x2="329" y1="206" y2="208"/>
<ellipse cx="445" cy="319" fill="#000000" rx="71.0" ry="25.0" stroke="#000000" stroke-width="1"/>
<ellipse cx="445" cy="319" fill="#ffffff" rx="70.0" ry="24.0" stroke="#ffffff" stroke-width="1"/>
<text font-family="Dialog" font-size="12" x="388" y="320">
UC09: Check History</text>
<ellipse cx="495" cy="494" fill="#000000" rx="65.0" ry="24.0" stroke="#000000" stroke-width="1"/>
<ellipse cx="495" cy="494" fill="#ffffff" rx="64.0" ry="23.0" stroke="#ffffff" stroke-width="1"/>
<text font-family="Dialog" font-size="12" x="444" y="495">
UC15: Check Help</text>
<polyline fill="none" points="75,334 374,321" stroke="#000000" stroke-width="1"/>
<line fill="#000000" stroke="#000000" stroke-width="1" x1="362" x2="374" y1="328" y2="321"/>
<line fill="#000000" stroke="#000000" stroke-width="1" x1="361" x2="374" y1="314" y2="321"/>
<polyline fill="none" points="70,383 441,480" stroke="#000000" stroke-width="1"/>
<line fill="#000000" stroke="#000000" stroke-width="1" x1="427" x2="441" y1="483" y2="480"/>
<line fill="#000000" stroke="#000000" stroke-width="1" x1="431" x2="441" y1="470" y2="480"/>
<ellipse cx="554" cy="582" fill="#000000" rx="68.0" ry="24.0" stroke="#000000" stroke-width="1"/>
<ellipse cx="554" cy="582" fill="#ffffff" rx="67.0" ry="23.0" stroke="#ffffff" stroke-width="1"/>
<text font-family="Dialog" font-size="12" x="500" y="583">
UC16: Check About</text>
<ellipse cx="397" cy="595" fill="#000000" rx="55.0" ry="21.0" stroke="#000000" stroke-width="1"/>
<ellipse cx="397" cy="595" fill="#ffffff" rx="54.0" ry="20.0" stroke="#ffffff" stroke-width="1"/>
<text font-family="Dialog" font-size="12" x="359" y="596">
UC17: Logout</text>
<polyline fill="none" points="70,383 509,563" stroke="#000000" stroke-width="1"/>
<line fill="#000000" stroke="#000000" stroke-width="1" x1="495" x2="509" y1="564" y2="563"/>
<line fill="#000000" stroke="#000000" stroke-width="1" x1="500" x2="509" y1="551" y2="563"/>
<polyline fill="none" points="70,383 369,576" stroke="#000000" stroke-width="1"/>
<line fill="#000000" stroke="#000000" stroke-width="1" x1="355" x2="369" y1="575" y2="576"/>
<line fill="#000000" stroke="#000000" stroke-width="1" x1="362" x2="369" y1="563" y2="576"/>
<ellipse cx="536" cy="94" fill="#000000" rx="58.0" ry="22.0" stroke="#000000" stroke-width="1"/>
<ellipse cx="536" cy="94" fill="#ffffff" rx="57.0" ry="21.0" stroke="#ffffff" stroke-width="1"/>
<text font-family="Dialog" font-size="12" x="493" y="95">
UC02: Register</text>
<line fill="#000000" stroke="#000000" stroke-width="1" x1="479" x2="474" y1="98" y2="98"/>
<line fill="#000000" stroke="#000000" stroke-width="1" x1="469" x2="464" y1="98" y2="99"/>
<line fill="#000000" stroke="#000000" stroke-width="1" x1="459" x2="454" y1="99" y2="99"/>
<line fill="#000000" stroke="#000000" stroke-width="1" x1="449" x2="444" y1="100" y2="100"/>
<line fill="#000000" stroke="#000000" stroke-width="1" x1="439" x2="434" y1="101" y2="101"/>
<line fill="#000000" stroke="#000000" stroke-width="1" x1="429" x2="424" y1="101" y2="102"/>
<line fill="#000000" stroke="#000000" stroke-width="1" x1="419" x2="414" y1="102" y2="103"/>
<line fill="#000000" stroke="#000000" stroke-width="1" x1="409" x2="404" y1="103" y2="103"/>
<line fill="#000000" stroke="#000000" stroke-width="1" x1="413" x2="402" y1="96" y2="104"/>
<line fill="#000000" stroke="#000000" stroke-width="1" x1="414" x2="402" y1="110" y2="104"/>
<text font-family="Dialog" font-size="12" x="414" y="119">
&lt;&lt;extend&gt;&gt;</text>
<ellipse cx="612" cy="150" fill="#000000" rx="70.0" ry="24.0" stroke="#000000" stroke-width="1"/>
<ellipse cx="612" cy="150" fill="#ffffff" rx="69.0" ry="23.0" stroke="#ffffff" stroke-width="1"/>
<text font-family="Dialog" font-size="12" x="557" y="151">
UC04: Select Image</text>
<line fill="#000000" stroke="#000000" stroke-width="1" x1="460" x2="464" y1="173" y2="173"/>
<line fill="#000000" stroke="#000000" stroke-width="1" x1="469" x2="474" y1="172" y2="171"/>
<line fill="#000000" stroke="#000000" stroke-width="1" x1="479" x2="484" y1="170" y2="170"/>
<line fill="#000000" stroke="#000000" stroke-width="1" x1="489" x2="494" y1="169" y2="168"/>
<line fill="#000000" stroke="#000000" stroke-width="1" x1="499" x2="504" y1="167" y2="166"/>
<line fill="#000000" stroke="#000000" stroke-width="1" x1="509" x2="514" y1="166" y2="165"/>
<line fill="#000000" stroke="#000000" stroke-width="1" x1="519" x2="524" y1="164" y2="163"/>
<line fill="#000000" stroke="#000000" stroke-width="1" x1="529" x2="534" y1="162" y2="162"/>
<line fill="#000000" stroke="#000000" stroke-width="1" x1="539" x2="544" y1="161" y2="160"/>
<line fill="#000000" stroke="#000000" stroke-width="1" x1="536" x2="547" y1="167" y2="159"/>
<line fill="#000000" stroke="#000000" stroke-width="1" x1="534" x2="547" y1="153" y2="159"/>
<text font-family="Dialog" font-size="12" x="457" y="157">
&lt;&lt;include&gt;&gt;</text>
<ellipse cx="826" cy="94" fill="#000000" rx="68.0" ry="24.0" stroke="#000000" stroke-width="1"/>
<ellipse cx="826" cy="94" fill="#ffffff" rx="67.0" ry="23.0" stroke="#ffffff" stroke-width="1"/>
<text font-family="Dialog" font-size="12" x="773" y="95">
UC05: Take Picture</text>
<ellipse cx="824" cy="170" fill="#000000" rx="90.0" ry="28.0" stroke="#000000" stroke-width="1"/>
<ellipse cx="824" cy="170" fill="#ffffff" rx="89.0" ry="27.0" stroke="#ffffff" stroke-width="1"/>
<text font-family="Dialog" font-size="12" x="748" y="171">
UC06: Select Gallery Image</text>
<line fill="#000000" stroke="#000000" stroke-width="1" x1="771" x2="767" y1="108" y2="109"/>
<line fill="#000000" stroke="#000000" stroke-width="1" x1="762" x2="757" y1="110" y2="111"/>
<line fill="#000000" stroke="#000000" stroke-width="1" x1="752" x2="747" y1="113" y2="114"/>
<line fill="#000000" stroke="#000000" stroke-width="1" x1="742" x2="737" y1="115" y2="116"/>
<line fill="#000000" stroke="#000000" stroke-width="1" x1="733" x2="728" y1="118" y2="119"/>
<line fill="#000000" stroke="#000000" stroke-width="1" x1="723" x2="718" y1="120" y2="121"/>
<line fill="#000000" stroke="#000000" stroke-width="1" x1="713" x2="708" y1="123" y2="124"/>
<line fill="#000000" stroke="#000000" stroke-width="1" x1="703" x2="699" y1="125" y2="126"/>
<line fill="#000000" stroke="#000000" stroke-width="1" x1="694" x2="689" y1="128" y2="129"/>
<line fill="#000000" stroke="#000000" stroke-width="1" x1="684" x2="679" y1="130" y2="131"/>
<line fill="#000000" stroke="#000000" stroke-width="1" x1="674" x2="669" y1="133" y2="134"/>
<line fill="#000000" stroke="#000000" stroke-width="1" x1="676" x2="667" y1="125" y2="135"/>
<line fill="#000000" stroke="#000000" stroke-width="1" x1="680" x2="667" y1="138" y2="135"/>
<text font-family="Dialog" font-size="12" x="681" y="92">
&lt;&lt;extend&gt;&gt;</text>
<line fill="#000000" stroke="#000000" stroke-width="1" x1="738" x2="733" y1="161" y2="161"/>
<line fill="#000000" stroke="#000000" stroke-width="1" x1="728" x2="723" y1="160" y2="160"/>
<line fill="#000000" stroke="#000000" stroke-width="1" x1="718" x2="713" y1="159" y2="159"/>
<line fill="#000000" stroke="#000000" stroke-width="1" x1="708" x2="703" y1="158" y2="158"/>
<line fill="#000000" stroke="#000000" stroke-width="1" x1="698" x2="693" y1="157" y2="157"/>
<line fill="#000000" stroke="#000000" stroke-width="1" x1="688" x2="683" y1="156" y2="156"/>
<line fill="#000000" stroke="#000000" stroke-width="1" x1="691" x2="679" y1="149" y2="155"/>
<line fill="#000000" stroke="#000000" stroke-width="1" x1="690" x2="679" y1="163" y2="155"/>
<text font-family="Dialog" font-size="12" x="684" y="176">
&lt;&lt;extend&gt;&gt;</text>
<ellipse cx="793" cy="323" fill="#000000" rx="91.0" ry="29.0" stroke="#000000" stroke-width="1"/>
<ellipse cx="793" cy="323" fill="#ffffff" rx="90.0" ry="28.0" stroke="#ffffff" stroke-width="1"/>
<text font-family="Dialog" font-size="12" x="715" y="324">
UC10: Expand History Detail</text>
<line fill="#000000" stroke="#000000" stroke-width="1" x1="702" x2="697" y1="320" y2="320"/>
<line fill="#000000" stroke="#000000" stroke-width="1" x1="692" x2="687" y1="320" y2="320"/>
<line fill="#000000" stroke="#000000" stroke-width="1" x1="682" x2="677" y1="320" y2="320"/>
<line fill="#000000" stroke="#000000" stroke-width="1" x1="672" x2="667" y1="320" y2="320"/>
<line fill="#000000" stroke="#000000" stroke-width="1" x1="662" x2="657" y1="320" y2="320"/>
<line fill="#000000" stroke="#000000" stroke-width="1" x1="652" x2="647" y1="320" y2="320"/>
<line fill="#000000" stroke="#000000" stroke-width="1" x1="642" x2="637" y1="320" y2="320"/>
<line fill="#000000" stroke="#000000" stroke-width="1" x1="632" x2="627" y1="320" y2="320"/>
<line fill="#000000" stroke="#000000" stroke-width="1" x1="622" x2="617" y1="320" y2="320"/>
<line fill="#000000" stroke="#000000" stroke-width="1" x1="612" x2="607" y1="320" y2="320"/>
<line fill="#000000" stroke="#000000" stroke-width="1" x1="602" x2="597" y1="320" y2="320"/>
<line fill="#000000" stroke="#000000" stroke-width="1" x1="592" x2="587" y1="320" y2="320"/>
<line fill="#000000" stroke="#000000" stroke-width="1" x1="582" x2="577" y1="320" y2="320"/>
<line fill="#000000" stroke="#000000" stroke-width="1" x1="572" x2="567" y1="320" y2="320"/>
<line fill="#000000" stroke="#000000" stroke-width="1" x1="562" x2="557" y1="320" y2="320"/>
<line fill="#000000" stroke="#000000" stroke-width="1" x1="552" x2="547" y1="320" y2="320"/>
<line fill="#000000" stroke="#000000" stroke-width="1" x1="542" x2="537" y1="320" y2="320"/>
<line fill="#000000" stroke="#000000" stroke-width="1" x1="532" x2="527" y1="320" y2="320"/>
<line fill="#000000" stroke="#000000" stroke-width="1" x1="522" x2="517" y1="320" y2="320"/>
<line fill="#000000" stroke="#000000" stroke-width="1" x1="527" x2="515" y1="313" y2="320"/>
<line fill="#000000" stroke="#000000" stroke-width="1" x1="527" x2="515" y1="327" y2="320"/>
<text font-family="Dialog" font-size="12" x="595" y="348">
&lt;&lt;extend&gt;&gt;</text>
<ellipse cx="712" cy="407" fill="#000000" rx="74.0" ry="25.0" stroke="#000000" stroke-width="1"/>
<ellipse cx="712" cy="407" fill="#ffffff" rx="73.0" ry="24.0" stroke="#ffffff" stroke-width="1"/>
<text font-family="Dialog" font-size="12" x="653" y="408">
UC11: Search History</text>
<line fill="#000000" stroke="#000000" stroke-width="1" x1="658" x2="654" y1="389" y2="388"/>
<line fill="#000000" stroke="#000000" stroke-width="1" x1="649" x2="644" y1="386" y2="385"/>
<line fill="#000000" stroke="#000000" stroke-width="1" x1="639" x2="635" y1="383" y2="382"/>
<line fill="#000000" stroke="#000000" stroke-width="1" x1="630" x2="625" y1="380" y2="379"/>
<line fill="#000000" stroke="#000000" stroke-width="1" x1="620" x2="616" y1="377" y2="375"/>
<line fill="#000000" stroke="#000000" stroke-width="1" x1="611" x2="606" y1="374" y2="372"/>
<line fill="#000000" stroke="#000000" stroke-width="1" x1="601" x2="597" y1="371" y2="369"/>
<line fill="#000000" stroke="#000000" stroke-width="1" x1="592" x2="587" y1="368" y2="366"/>
<line fill="#000000" stroke="#000000" stroke-width="1" x1="582" x2="577" y1="365" y2="363"/>
<line fill="#000000" stroke="#000000" stroke-width="1" x1="573" x2="568" y1="361" y2="360"/>
<line fill="#000000" stroke="#000000" stroke-width="1" x1="563" x2="558" y1="358" y2="357"/>
<line fill="#000000" stroke="#000000" stroke-width="1" x1="554" x2="549" y1="355" y2="354"/>
<line fill="#000000" stroke="#000000" stroke-width="1" x1="544" x2="539" y1="352" y2="351"/>
<line fill="#000000" stroke="#000000" stroke-width="1" x1="535" x2="530" y1="349" y2="347"/>
<line fill="#000000" stroke="#000000" stroke-width="1" x1="525" x2="520" y1="346" y2="344"/>
<line fill="#000000" stroke="#000000" stroke-width="1" x1="516" x2="511" y1="343" y2="341"/>
<line fill="#000000" stroke="#000000" stroke-width="1" x1="506" x2="501" y1="340" y2="338"/>
<line fill="#000000" stroke="#000000" stroke-width="1" x1="509" x2="496" y1="333" y2="336"/>
<line fill="#000000" stroke="#000000" stroke-width="1" x1="505" x2="496" y1="346" y2="336"/>
<text font-family="Dialog" font-size="12" x="541" y="387">
&lt;&lt;extend&gt;&gt;</text>
<polygon fill="#ffffff" points="526,14 720,14 730,24 730,53 526,53 526,14" stroke="#ffffff" stroke-width="1"/>
<polyline fill="none" points="526,14 720,14 730,24 730,53 526,53 526,14" stroke="#000000" stroke-width="1"/>
<polygon fill="#ffffff" points="720,14 730,24 720,24 720,14" stroke="#ffffff" stroke-width="1"/>
<polyline fill="none" points="720,14 730,24 720,24 720,14" stroke="#000000" stroke-width="1"/>
<text font-family="Dialog" font-size="12" x="529" y="30">
Use Case Diagram for MAPme</text>
<text font-family="Dialog" font-size="12" x="529" y="46">
Authors: P.S. Sebeikin, D. G. Smith</text>
<ellipse cx="605" cy="244" fill="#000000" rx="95.0" ry="30.0" stroke="#000000" stroke-width="1"/>
<ellipse cx="605" cy="244" fill="#ffffff" rx="94.0" ry="29.0" stroke="#ffffff" stroke-width="1"/>
<text font-family="Dialog" font-size="12" x="523" y="245">
UC7: Capture Mandatroy Data</text>
<line fill="#000000" stroke="#000000" stroke-width="1" x1="450" x2="454" y1="203" y2="204"/>
<line fill="#000000" stroke="#000000" stroke-width="1" x1="459" x2="464" y1="205" y2="206"/>
<line fill="#000000" stroke="#000000" stroke-width="1" x1="469" x2="474" y1="208" y2="209"/>
<line fill="#000000" stroke="#000000" stroke-width="1" x1="479" x2="484" y1="210" y2="211"/>
<line fill="#000000" stroke="#000000" stroke-width="1" x1="489" x2="493" y1="213" y2="214"/>
<line fill="#000000" stroke="#000000" stroke-width="1" x1="498" x2="503" y1="215" y2="216"/>
<line fill="#000000" stroke="#000000" stroke-width="1" x1="508" x2="513" y1="218" y2="219"/>
<line fill="#000000" stroke="#000000" stroke-width="1" x1="518" x2="523" y1="220" y2="221"/>
<line fill="#000000" stroke="#000000" stroke-width="1" x1="528" x2="532" y1="223" y2="224"/>
<line fill="#000000" stroke="#000000" stroke-width="1" x1="518" x2="532" y1="227" y2="224"/>
<line fill="#000000" stroke="#000000" stroke-width="1" x1="522" x2="532" y1="214" y2="224"/>
<text font-family="Dialog" font-size="12" x="475" y="204">
&lt;&lt;include&gt;&gt;</text>
<ellipse cx="860" cy="251" fill="#000000" rx="94.0" ry="29.0" stroke="#000000" stroke-width="1"/>
<ellipse cx="860" cy="251" fill="#ffffff" rx="93.0" ry="28.0" stroke="#ffffff" stroke-width="1"/>
<text font-family="Dialog" font-size="12" x="780" y="252">
UC08: Capture Optional Data</text>
<line fill="#000000" stroke="#000000" stroke-width="1" x1="766" x2="761" y1="245" y2="245"/>
<line fill="#000000" stroke="#000000" stroke-width="1" x1="756" x2="751" y1="245" y2="245"/>
<line fill="#000000" stroke="#000000" stroke-width="1" x1="746" x2="741" y1="245" y2="245"/>
<line fill="#000000" stroke="#000000" stroke-width="1" x1="736" x2="731" y1="245" y2="245"/>
<line fill="#000000" stroke="#000000" stroke-width="1" x1="726" x2="721" y1="245" y2="245"/>
<line fill="#000000" stroke="#000000" stroke-width="1" x1="716" x2="711" y1="245" y2="245"/>
<line fill="#000000" stroke="#000000" stroke-width="1" x1="706" x2="701" y1="245" y2="245"/>
<line fill="#000000" stroke="#000000" stroke-width="1" x1="711" x2="699" y1="238" y2="245"/>
<line fill="#000000" stroke="#000000" stroke-width="1" x1="711" x2="699" y1="252" y2="245"/>
<text font-family="Dialog" font-size="12" x="705" y="262">
&lt;&lt;extend&gt;&gt;</text>
<ellipse cx="434" cy="406" fill="#000000" rx="68.0" ry="24.0" stroke="#000000" stroke-width="1"/>
<ellipse cx="434" cy="406" fill="#ffffff" rx="67.0" ry="23.0" stroke="#ffffff" stroke-width="1"/>
<text font-family="Dialog" font-size="12" x="383" y="407">
UC12: View Profile</text>
<ellipse cx="727" cy="479" fill="#000000" rx="73.0" ry="25.0" stroke="#000000" stroke-width="1"/>
<ellipse cx="727" cy="479" fill="#ffffff" rx="72.0" ry="24.0" stroke="#ffffff" stroke-width="1"/>
<text font-family="Dialog" font-size="12" x="669" y="480">
UC14: Update Profile</text>
<polyline fill="none" points="70,383 367,401" stroke="#000000" stroke-width="1"/>
<line fill="#000000" stroke="#000000" stroke-width="1" x1="354" x2="367" y1="407" y2="401"/>
<line fill="#000000" stroke="#000000" stroke-width="1" x1="355" x2="367" y1="393" y2="401"/>
<line fill="#000000" stroke="#000000" stroke-width="1" x1="668" x2="664" y1="464" y2="463"/>
<line fill="#000000" stroke="#000000" stroke-width="1" x1="659" x2="654" y1="462" y2="461"/>
<line fill="#000000" stroke="#000000" stroke-width="1" x1="649" x2="644" y1="460" y2="458"/>
<line fill="#000000" stroke="#000000" stroke-width="1" x1="639" x2="634" y1="457" y2="456"/>
<line fill="#000000" stroke="#000000" stroke-width="1" x1="630" x2="625" y1="455" y2="453"/>
<line fill="#000000" stroke="#000000" stroke-width="1" x1="620" x2="615" y1="452" y2="451"/>
<line fill="#000000" stroke="#000000" stroke-width="1" x1="610" x2="605" y1="450" y2="449"/>
<line fill="#000000" stroke="#000000" stroke-width="1" x1="600" x2="596" y1="447" y2="446"/>
<line fill="#000000" stroke="#000000" stroke-width="1" x1="591" x2="586" y1="445" y2="444"/>
<line fill="#000000" stroke="#000000" stroke-width="1" x1="581" x2="576" y1="442" y2="441"/>
<line fill="#000000" stroke="#000000" stroke-width="1" x1="571" x2="566" y1="440" y2="439"/>
<line fill="#000000" stroke="#000000" stroke-width="1" x1="561" x2="557" y1="438" y2="436"/>
<line fill="#000000" stroke="#000000" stroke-width="1" x1="552" x2="547" y1="435" y2="434"/>
<line fill="#000000" stroke="#000000" stroke-width="1" x1="542" x2="537" y1="433" y2="431"/>
<line fill="#000000" stroke="#000000" stroke-width="1" x1="532" x2="527" y1="430" y2="429"/>
<line fill="#000000" stroke="#000000" stroke-width="1" x1="523" x2="518" y1="428" y2="427"/>
<line fill="#000000" stroke="#000000" stroke-width="1" x1="513" x2="508" y1="425" y2="424"/>
<line fill="#000000" stroke="#000000" stroke-width="1" x1="503" x2="498" y1="423" y2="422"/>
<line fill="#000000" stroke="#000000" stroke-width="1" x1="493" x2="489" y1="420" y2="419"/>
<line fill="#000000" stroke="#000000" stroke-width="1" x1="502" x2="489" y1="415" y2="419"/>
<line fill="#000000" stroke="#000000" stroke-width="1" x1="498" x2="489" y1="428" y2="419"/>
<text font-family="Dialog" font-size="12" x="551" y="466">
&lt;&lt;extend&gt;&gt;</text>
</svg>
