<?xml version="1.0" encoding="utf-8" ?>
<!DOCTYPE svg PUBLIC "-//W3C//DTD SVG 1.1//EN" "http://www.w3.org/Graphics/SVG/1.1/DTD/svg11.dtd">
<svg height="628" version="1.1" width="916" xmlns="http://www.w3.org/2000/svg">
<text font-family="Dialog" font-size="12" x="18" y="373">
A01: Item Mapper</text>
<ellipse cx="45" cy="321" fill="#000000" rx="8.0" ry="7.5" stroke="#000000" stroke-width="1"/>
<ellipse cx="45" cy="321" fill="#ffffff" rx="7.0" ry="6.5" stroke="#ffffff" stroke-width="1"/>
<line fill="#000000" stroke="#000000" stroke-width="1" x1="45" x2="45" y1="329" y2="344"/>
<line fill="#000000" stroke="#000000" stroke-width="1" x1="35" x2="55" y1="334" y2="334"/>
<line fill="#000000" stroke="#000000" stroke-width="1" x1="45" x2="40" y1="344" y2="359"/>
<line fill="#000000" stroke="#000000" stroke-width="1" x1="45" x2="50" y1="344" y2="359"/>
<rect fill="#ffffff" height="552" stroke="#ffffff" stroke-width="1" width="640" x="262" y="62"/>
<rect fill="none" height="552" stroke="#000000" stroke-width="1" width="640" x="262" y="62"/>
<ellipse cx="349" cy="109" fill="#000000" rx="55.0" ry="21.0" stroke="#000000" stroke-width="1"/>
<ellipse cx="349" cy="109" fill="#ffffff" rx="54.0" ry="20.0" stroke="#ffffff" stroke-width="1"/>
<text font-family="Dialog" font-size="12" x="314" y="110">
UC01: Login</text>
<polyline fill="none" points="52,316 322,127" stroke="#000000" stroke-width="1"/>
<line fill="#000000" stroke="#000000" stroke-width="1" x1="316" x2="322" y1="139" y2="127"/>
<line fill="#000000" stroke="#000000" stroke-width="1" x1="308" x2="322" y1="128" y2="127"/>
<ellipse cx="358" cy="180" fill="#000000" rx="88.0" ry="28.0" stroke="#000000" stroke-width="1"/>
<ellipse cx="358" cy="180" fill="#ffffff" rx="87.0" ry="27.0" stroke="#ffffff" stroke-width="1"/>
<text font-family="Dialog" font-size="12" x="284" y="181">
UC03: Submit New Record</text>
<polyline fill="none" points="53,318 307,202" stroke="#000000" stroke-width="1"/>
<line fill="#000000" stroke="#000000" stroke-width="1" x1="298" x2="307" y1="213" y2="202"/>
<line fill="#000000" stroke="#000000" stroke-width="1" x1="293" x2="307" y1="200" y2="202"/>
<ellipse cx="413" cy="305" fill="#000000" rx="71.0" ry="25.0" stroke="#000000" stroke-width="1"/>
<ellipse cx="413" cy="305" fill="#ffffff" rx="70.0" ry="24.0" stroke="#ffffff" stroke-width="1"/>
<text font-family="Dialog" font-size="12" x="356" y="306">
UC07: Check History</text>
<ellipse cx="463" cy="416" fill="#000000" rx="65.0" ry="24.0" stroke="#000000" stroke-width="1"/>
<ellipse cx="463" cy="416" fill="#ffffff" rx="64.0" ry="23.0" stroke="#ffffff" stroke-width="1"/>
<text font-family="Dialog" font-size="12" x="412" y="417">
UC10: Check Help</text>
<polyline fill="none" points="55,334 343,310" stroke="#000000" stroke-width="1"/>
<line fill="#000000" stroke="#000000" stroke-width="1" x1="331" x2="343" y1="317" y2="310"/>
<line fill="#000000" stroke="#000000" stroke-width="1" x1="330" x2="343" y1="304" y2="310"/>
<polyline fill="none" points="50,383 399,410" stroke="#000000" stroke-width="1"/>
<line fill="#000000" stroke="#000000" stroke-width="1" x1="386" x2="399" y1="416" y2="410"/>
<line fill="#000000" stroke="#000000" stroke-width="1" x1="387" x2="399" y1="402" y2="410"/>
<ellipse cx="466" cy="496" fill="#000000" rx="68.0" ry="24.0" stroke="#000000" stroke-width="1"/>
<ellipse cx="466" cy="496" fill="#ffffff" rx="67.0" ry="23.0" stroke="#ffffff" stroke-width="1"/>
<text font-family="Dialog" font-size="12" x="412" y="497">
UC11: Check About</text>
<ellipse cx="421" cy="573" fill="#000000" rx="55.0" ry="21.0" stroke="#000000" stroke-width="1"/>
<ellipse cx="421" cy="573" fill="#ffffff" rx="54.0" ry="20.0" stroke="#ffffff" stroke-width="1"/>
<text font-family="Dialog" font-size="12" x="383" y="574">
UC11: Logout</text>
<polyline fill="none" points="50,383 412,481" stroke="#000000" stroke-width="1"/>
<line fill="#000000" stroke="#000000" stroke-width="1" x1="398" x2="412" y1="484" y2="481"/>
<line fill="#000000" stroke="#000000" stroke-width="1" x1="402" x2="412" y1="471" y2="481"/>
<polyline fill="none" points="50,383 388,556" stroke="#000000" stroke-width="1"/>
<line fill="#000000" stroke="#000000" stroke-width="1" x1="374" x2="388" y1="556" y2="556"/>
<line fill="#000000" stroke="#000000" stroke-width="1" x1="380" x2="388" y1="544" y2="556"/>
<ellipse cx="536" cy="94" fill="#000000" rx="58.0" ry="22.0" stroke="#000000" stroke-width="1"/>
<ellipse cx="536" cy="94" fill="#ffffff" rx="57.0" ry="21.0" stroke="#ffffff" stroke-width="1"/>
<text font-family="Dialog" font-size="12" x="493" y="95">
UC02: Register</text>
<line fill="#000000" stroke="#000000" stroke-width="1" x1="479" x2="474" y1="98" y2="98"/>
<line fill="#000000" stroke="#000000" stroke-width="1" x1="469" x2="464" y1="98" y2="99"/>
<line fill="#000000" stroke="#000000" stroke-width="1" x1="459" x2="454" y1="99" y2="99"/>
<line fill="#000000" stroke="#000000" stroke-width="1" x1="449" x2="444" y1="100" y2="100"/>
<line fill="#000000" stroke="#000000" stroke-width="1" x1="439" x2="434" y1="101" y2="101"/>
<line fill="#000000" stroke="#000000" stroke-width="1" x1="429" x2="424" y1="101" y2="102"/>
<line fill="#000000" stroke="#000000" stroke-width="1" x1="419" x2="414" y1="102" y2="103"/>
<line fill="#000000" stroke="#000000" stroke-width="1" x1="409" x2="404" y1="103" y2="103"/>
<line fill="#000000" stroke="#000000" stroke-width="1" x1="413" x2="402" y1="96" y2="104"/>
<line fill="#000000" stroke="#000000" stroke-width="1" x1="414" x2="402" y1="110" y2="104"/>
<text font-family="Dialog" font-size="12" x="414" y="119">
&lt;&lt;extend&gt;&gt;</text>
<ellipse cx="580" cy="160" fill="#000000" rx="70.0" ry="24.0" stroke="#000000" stroke-width="1"/>
<ellipse cx="580" cy="160" fill="#ffffff" rx="69.0" ry="23.0" stroke="#ffffff" stroke-width="1"/>
<text font-family="Dialog" font-size="12" x="525" y="161">
UC04: Select Image</text>
<line fill="#000000" stroke="#000000" stroke-width="1" x1="442" x2="447" y1="171" y2="171"/>
<line fill="#000000" stroke="#000000" stroke-width="1" x1="452" x2="457" y1="171" y2="170"/>
<line fill="#000000" stroke="#000000" stroke-width="1" x1="462" x2="467" y1="170" y2="169"/>
<line fill="#000000" stroke="#000000" stroke-width="1" x1="472" x2="477" y1="169" y2="168"/>
<line fill="#000000" stroke="#000000" stroke-width="1" x1="482" x2="487" y1="168" y2="168"/>
<line fill="#000000" stroke="#000000" stroke-width="1" x1="492" x2="497" y1="167" y2="167"/>
<line fill="#000000" stroke="#000000" stroke-width="1" x1="502" x2="507" y1="166" y2="166"/>
<line fill="#000000" stroke="#000000" stroke-width="1" x1="499" x2="511" y1="173" y2="165"/>
<line fill="#000000" stroke="#000000" stroke-width="1" x1="498" x2="511" y1="159" y2="165"/>
<text font-family="Dialog" font-size="12" x="451" y="194">
&lt;&lt;include&gt;&gt;</text>
<ellipse cx="778" cy="104" fill="#000000" rx="68.0" ry="24.0" stroke="#000000" stroke-width="1"/>
<ellipse cx="778" cy="104" fill="#ffffff" rx="67.0" ry="23.0" stroke="#ffffff" stroke-width="1"/>
<text font-family="Dialog" font-size="12" x="725" y="105">
UC05: Take Picture</text>
<ellipse cx="792" cy="212" fill="#000000" rx="90.0" ry="28.0" stroke="#000000" stroke-width="1"/>
<ellipse cx="792" cy="212" fill="#ffffff" rx="89.0" ry="27.0" stroke="#ffffff" stroke-width="1"/>
<text font-family="Dialog" font-size="12" x="716" y="213">
UC06: Select Gallery Image</text>
<line fill="#000000" stroke="#000000" stroke-width="1" x1="724" x2="720" y1="118" y2="119"/>
<line fill="#000000" stroke="#000000" stroke-width="1" x1="715" x2="710" y1="120" y2="122"/>
<line fill="#000000" stroke="#000000" stroke-width="1" x1="705" x2="700" y1="123" y2="124"/>
<line fill="#000000" stroke="#000000" stroke-width="1" x1="695" x2="691" y1="126" y2="127"/>
<line fill="#000000" stroke="#000000" stroke-width="1" x1="686" x2="681" y1="129" y2="130"/>
<line fill="#000000" stroke="#000000" stroke-width="1" x1="676" x2="671" y1="131" y2="133"/>
<line fill="#000000" stroke="#000000" stroke-width="1" x1="666" x2="662" y1="134" y2="135"/>
<line fill="#000000" stroke="#000000" stroke-width="1" x1="657" x2="652" y1="137" y2="138"/>
<line fill="#000000" stroke="#000000" stroke-width="1" x1="647" x2="642" y1="140" y2="141"/>
<line fill="#000000" stroke="#000000" stroke-width="1" x1="637" x2="633" y1="142" y2="144"/>
<line fill="#000000" stroke="#000000" stroke-width="1" x1="642" x2="633" y1="133" y2="144"/>
<line fill="#000000" stroke="#000000" stroke-width="1" x1="646" x2="633" y1="147" y2="144"/>
<text font-family="Dialog" font-size="12" x="667" y="151">
&lt;&lt;extend&gt;&gt;</text>
<line fill="#000000" stroke="#000000" stroke-width="1" x1="722" x2="718" y1="194" y2="193"/>
<line fill="#000000" stroke="#000000" stroke-width="1" x1="713" x2="708" y1="192" y2="191"/>
<line fill="#000000" stroke="#000000" stroke-width="1" x1="703" x2="698" y1="190" y2="188"/>
<line fill="#000000" stroke="#000000" stroke-width="1" x1="693" x2="688" y1="187" y2="186"/>
<line fill="#000000" stroke="#000000" stroke-width="1" x1="683" x2="679" y1="185" y2="184"/>
<line fill="#000000" stroke="#000000" stroke-width="1" x1="674" x2="669" y1="182" y2="181"/>
<line fill="#000000" stroke="#000000" stroke-width="1" x1="664" x2="659" y1="180" y2="179"/>
<line fill="#000000" stroke="#000000" stroke-width="1" x1="654" x2="649" y1="178" y2="176"/>
<line fill="#000000" stroke="#000000" stroke-width="1" x1="644" x2="639" y1="175" y2="174"/>
<line fill="#000000" stroke="#000000" stroke-width="1" x1="650" x2="637" y1="169" y2="173"/>
<line fill="#000000" stroke="#000000" stroke-width="1" x1="646" x2="637" y1="182" y2="173"/>
<text font-family="Dialog" font-size="12" x="632" y="203">
&lt;&lt;extend&gt;&gt;</text>
<ellipse cx="641" cy="269" fill="#000000" rx="91.0" ry="29.0" stroke="#000000" stroke-width="1"/>
<ellipse cx="641" cy="269" fill="#ffffff" rx="90.0" ry="28.0" stroke="#ffffff" stroke-width="1"/>
<text font-family="Dialog" font-size="12" x="563" y="270">
UC08: Expand History Detail</text>
<line fill="#000000" stroke="#000000" stroke-width="1" x1="558" x2="554" y1="281" y2="281"/>
<line fill="#000000" stroke="#000000" stroke-width="1" x1="549" x2="544" y1="282" y2="283"/>
<line fill="#000000" stroke="#000000" stroke-width="1" x1="539" x2="534" y1="284" y2="284"/>
<line fill="#000000" stroke="#000000" stroke-width="1" x1="529" x2="524" y1="285" y2="286"/>
<line fill="#000000" stroke="#000000" stroke-width="1" x1="519" x2="514" y1="287" y2="288"/>
<line fill="#000000" stroke="#000000" stroke-width="1" x1="509" x2="504" y1="288" y2="289"/>
<line fill="#000000" stroke="#000000" stroke-width="1" x1="499" x2="494" y1="290" y2="291"/>
<line fill="#000000" stroke="#000000" stroke-width="1" x1="489" x2="484" y1="292" y2="292"/>
<line fill="#000000" stroke="#000000" stroke-width="1" x1="479" x2="477" y1="293" y2="294"/>
<line fill="#000000" stroke="#000000" stroke-width="1" x1="487" x2="477" y1="285" y2="294"/>
<line fill="#000000" stroke="#000000" stroke-width="1" x1="489" x2="477" y1="299" y2="294"/>
<text font-family="Dialog" font-size="12" x="509" y="311">
&lt;&lt;extend&gt;&gt;</text>
<ellipse cx="632" cy="377" fill="#000000" rx="74.0" ry="25.0" stroke="#000000" stroke-width="1"/>
<ellipse cx="632" cy="377" fill="#ffffff" rx="73.0" ry="24.0" stroke="#ffffff" stroke-width="1"/>
<text font-family="Dialog" font-size="12" x="573" y="378">
UC09: Search History</text>
<line fill="#000000" stroke="#000000" stroke-width="1" x1="579" x2="575" y1="359" y2="358"/>
<line fill="#000000" stroke="#000000" stroke-width="1" x1="570" x2="565" y1="356" y2="355"/>
<line fill="#000000" stroke="#000000" stroke-width="1" x1="560" x2="556" y1="353" y2="352"/>
<line fill="#000000" stroke="#000000" stroke-width="1" x1="551" x2="546" y1="350" y2="348"/>
<line fill="#000000" stroke="#000000" stroke-width="1" x1="541" x2="537" y1="347" y2="345"/>
<line fill="#000000" stroke="#000000" stroke-width="1" x1="532" x2="527" y1="344" y2="342"/>
<line fill="#000000" stroke="#000000" stroke-width="1" x1="522" x2="518" y1="340" y2="339"/>
<line fill="#000000" stroke="#000000" stroke-width="1" x1="513" x2="508" y1="337" y2="336"/>
<line fill="#000000" stroke="#000000" stroke-width="1" x1="503" x2="499" y1="334" y2="333"/>
<line fill="#000000" stroke="#000000" stroke-width="1" x1="494" x2="489" y1="331" y2="329"/>
<line fill="#000000" stroke="#000000" stroke-width="1" x1="484" x2="480" y1="328" y2="326"/>
<line fill="#000000" stroke="#000000" stroke-width="1" x1="475" x2="470" y1="325" y2="323"/>
<line fill="#000000" stroke="#000000" stroke-width="1" x1="478" x2="465" y1="318" y2="321"/>
<line fill="#000000" stroke="#000000" stroke-width="1" x1="474" x2="465" y1="331" y2="321"/>
<text font-family="Dialog" font-size="12" x="486" y="364">
&lt;&lt;extend&gt;&gt;</text>
<polygon fill="#ffffff" points="478,14 672,14 682,24 682,53 478,53 478,14" stroke="#ffffff" stroke-width="1"/>
<polyline fill="none" points="478,14 672,14 682,24 682,53 478,53 478,14" stroke="#000000" stroke-width="1"/>
<polygon fill="#b2b2b2" points="672,14 682,24 672,24 672,14" stroke="#b2b2b2" stroke-width="1"/>
<polyline fill="none" points="672,14 682,24 672,24 672,14" stroke="#000000" stroke-width="1"/>
<text font-family="Dialog" font-size="12" x="481" y="30">
Use Case Diagram for MAPme</text>
<text font-family="Dialog" font-size="12" x="481" y="46">
Authors: P.S. Sebeikin, D. G. Smith</text>
</svg>
