<?xml version="1.0" encoding="utf-8" ?>
<!DOCTYPE svg PUBLIC "-//W3C//DTD SVG 1.1//EN" "http://www.w3.org/Graphics/SVG/1.1/DTD/svg11.dtd">
<svg height="628" version="1.1" width="1004" xmlns="http://www.w3.org/2000/svg">
<text font-family="Dialog" font-size="12" x="18" y="373">
A01: Item Mapper</text>
<ellipse cx="65" cy="321" fill="#000000" rx="8.0" ry="7.5" stroke="#000000" stroke-width="1"/>
<ellipse cx="65" cy="321" fill="#ffffff" rx="7.0" ry="6.5" stroke="#ffffff" stroke-width="1"/>
<line fill="#000000" stroke="#000000" stroke-width="1" x1="65" x2="65" y1="329" y2="344"/>
<line fill="#000000" stroke="#000000" stroke-width="1" x1="55" x2="75" y1="334" y2="334"/>
<line fill="#000000" stroke="#000000" stroke-width="1" x1="65" x2="60" y1="344" y2="359"/>
<line fill="#000000" stroke="#000000" stroke-width="1" x1="65" x2="70" y1="344" y2="359"/>
<rect fill="#ffffff" height="552" stroke="#ffffff" stroke-width="1" width="704" x="286" y="62"/>
<rect fill="none" height="552" stroke="#000000" stroke-width="1" width="704" x="286" y="62"/>
<ellipse cx="349" cy="109" fill="#000000" rx="55.0" ry="21.0" stroke="#000000" stroke-width="1"/>
<ellipse cx="349" cy="109" fill="#ffffff" rx="54.0" ry="20.0" stroke="#ffffff" stroke-width="1"/>
<text font-family="Dialog" font-size="12" x="314" y="110">
UC01: Login</text>
<polyline fill="none" points="72,316 323,127" stroke="#000000" stroke-width="1"/>
<line fill="#000000" stroke="#000000" stroke-width="1" x1="317" x2="323" y1="139" y2="127"/>
<line fill="#000000" stroke="#000000" stroke-width="1" x1="309" x2="323" y1="128" y2="127"/>
<ellipse cx="382" cy="186" fill="#000000" rx="88.0" ry="28.0" stroke="#000000" stroke-width="1"/>
<ellipse cx="382" cy="186" fill="#ffffff" rx="87.0" ry="27.0" stroke="#ffffff" stroke-width="1"/>
<text font-family="Dialog" font-size="12" x="308" y="187">
UC03: Submit New Record</text>
<polyline fill="none" points="73,318 329,208" stroke="#000000" stroke-width="1"/>
<line fill="#000000" stroke="#000000" stroke-width="1" x1="320" x2="329" y1="219" y2="208"/>
<line fill="#000000" stroke="#000000" stroke-width="1" x1="315" x2="329" y1="206" y2="208"/>
<ellipse cx="445" cy="319" fill="#000000" rx="71.0" ry="25.0" stroke="#000000" stroke-width="1"/>
<ellipse cx="445" cy="319" fill="#ffffff" rx="70.0" ry="24.0" stroke="#ffffff" stroke-width="1"/>
<text font-family="Dialog" font-size="12" x="388" y="320">
UC09: Check History</text>
<ellipse cx="439" cy="430" fill="#000000" rx="65.0" ry="24.0" stroke="#000000" stroke-width="1"/>
<ellipse cx="439" cy="430" fill="#ffffff" rx="64.0" ry="23.0" stroke="#ffffff" stroke-width="1"/>
<text font-family="Dialog" font-size="12" x="388" y="431">
UC12: Check Help</text>
<polyline fill="none" points="75,334 374,321" stroke="#000000" stroke-width="1"/>
<line fill="#000000" stroke="#000000" stroke-width="1" x1="362" x2="374" y1="328" y2="321"/>
<line fill="#000000" stroke="#000000" stroke-width="1" x1="361" x2="374" y1="314" y2="321"/>
<polyline fill="none" points="70,383 377,422" stroke="#000000" stroke-width="1"/>
<line fill="#000000" stroke="#000000" stroke-width="1" x1="364" x2="377" y1="427" y2="422"/>
<line fill="#000000" stroke="#000000" stroke-width="1" x1="365" x2="377" y1="413" y2="422"/>
<ellipse cx="554" cy="526" fill="#000000" rx="68.0" ry="24.0" stroke="#000000" stroke-width="1"/>
<ellipse cx="554" cy="526" fill="#ffffff" rx="67.0" ry="23.0" stroke="#ffffff" stroke-width="1"/>
<text font-family="Dialog" font-size="12" x="500" y="527">
UC13: Check About</text>
<ellipse cx="421" cy="573" fill="#000000" rx="55.0" ry="21.0" stroke="#000000" stroke-width="1"/>
<ellipse cx="421" cy="573" fill="#ffffff" rx="54.0" ry="20.0" stroke="#ffffff" stroke-width="1"/>
<text font-family="Dialog" font-size="12" x="383" y="574">
UC14: Logout</text>
<polyline fill="none" points="70,383 501,510" stroke="#000000" stroke-width="1"/>
<line fill="#000000" stroke="#000000" stroke-width="1" x1="487" x2="501" y1="513" y2="510"/>
<line fill="#000000" stroke="#000000" stroke-width="1" x1="491" x2="501" y1="499" y2="510"/>
<polyline fill="none" points="70,383 389,555" stroke="#000000" stroke-width="1"/>
<line fill="#000000" stroke="#000000" stroke-width="1" x1="375" x2="389" y1="555" y2="555"/>
<line fill="#000000" stroke="#000000" stroke-width="1" x1="381" x2="389" y1="543" y2="555"/>
<ellipse cx="536" cy="94" fill="#000000" rx="58.0" ry="22.0" stroke="#000000" stroke-width="1"/>
<ellipse cx="536" cy="94" fill="#ffffff" rx="57.0" ry="21.0" stroke="#ffffff" stroke-width="1"/>
<text font-family="Dialog" font-size="12" x="493" y="95">
UC02: Register</text>
<line fill="#000000" stroke="#000000" stroke-width="1" x1="479" x2="474" y1="98" y2="98"/>
<line fill="#000000" stroke="#000000" stroke-width="1" x1="469" x2="464" y1="98" y2="99"/>
<line fill="#000000" stroke="#000000" stroke-width="1" x1="459" x2="454" y1="99" y2="99"/>
<line fill="#000000" stroke="#000000" stroke-width="1" x1="449" x2="444" y1="100" y2="100"/>
<line fill="#000000" stroke="#000000" stroke-width="1" x1="439" x2="434" y1="101" y2="101"/>
<line fill="#000000" stroke="#000000" stroke-width="1" x1="429" x2="424" y1="101" y2="102"/>
<line fill="#000000" stroke="#000000" stroke-width="1" x1="419" x2="414" y1="102" y2="103"/>
<line fill="#000000" stroke="#000000" stroke-width="1" x1="409" x2="404" y1="103" y2="103"/>
<line fill="#000000" stroke="#000000" stroke-width="1" x1="413" x2="402" y1="96" y2="104"/>
<line fill="#000000" stroke="#000000" stroke-width="1" x1="414" x2="402" y1="110" y2="104"/>
<text font-family="Dialog" font-size="12" x="414" y="119">
&lt;&lt;extend&gt;&gt;</text>
<ellipse cx="612" cy="150" fill="#000000" rx="70.0" ry="24.0" stroke="#000000" stroke-width="1"/>
<ellipse cx="612" cy="150" fill="#ffffff" rx="69.0" ry="23.0" stroke="#ffffff" stroke-width="1"/>
<text font-family="Dialog" font-size="12" x="557" y="151">
UC04: Select Image</text>
<line fill="#000000" stroke="#000000" stroke-width="1" x1="460" x2="464" y1="173" y2="173"/>
<line fill="#000000" stroke="#000000" stroke-width="1" x1="469" x2="474" y1="172" y2="171"/>
<line fill="#000000" stroke="#000000" stroke-width="1" x1="479" x2="484" y1="170" y2="170"/>
<line fill="#000000" stroke="#000000" stroke-width="1" x1="489" x2="494" y1="169" y2="168"/>
<line fill="#000000" stroke="#000000" stroke-width="1" x1="499" x2="504" y1="167" y2="166"/>
<line fill="#000000" stroke="#000000" stroke-width="1" x1="509" x2="514" y1="166" y2="165"/>
<line fill="#000000" stroke="#000000" stroke-width="1" x1="519" x2="524" y1="164" y2="163"/>
<line fill="#000000" stroke="#000000" stroke-width="1" x1="529" x2="534" y1="162" y2="162"/>
<line fill="#000000" stroke="#000000" stroke-width="1" x1="539" x2="544" y1="161" y2="160"/>
<line fill="#000000" stroke="#000000" stroke-width="1" x1="536" x2="547" y1="167" y2="159"/>
<line fill="#000000" stroke="#000000" stroke-width="1" x1="534" x2="547" y1="153" y2="159"/>
<text font-family="Dialog" font-size="12" x="457" y="157">
&lt;&lt;include&gt;&gt;</text>
<ellipse cx="826" cy="94" fill="#000000" rx="68.0" ry="24.0" stroke="#000000" stroke-width="1"/>
<ellipse cx="826" cy="94" fill="#ffffff" rx="67.0" ry="23.0" stroke="#ffffff" stroke-width="1"/>
<text font-family="Dialog" font-size="12" x="773" y="95">
UC05: Take Picture</text>
<ellipse cx="824" cy="170" fill="#000000" rx="90.0" ry="28.0" stroke="#000000" stroke-width="1"/>
<ellipse cx="824" cy="170" fill="#ffffff" rx="89.0" ry="27.0" stroke="#ffffff" stroke-width="1"/>
<text font-family="Dialog" font-size="12" x="748" y="171">
UC06: Select Gallery Image</text>
<line fill="#000000" stroke="#000000" stroke-width="1" x1="771" x2="767" y1="108" y2="109"/>
<line fill="#000000" stroke="#000000" stroke-width="1" x1="762" x2="757" y1="110" y2="111"/>
<line fill="#000000" stroke="#000000" stroke-width="1" x1="752" x2="747" y1="113" y2="114"/>
<line fill="#000000" stroke="#000000" stroke-width="1" x1="742" x2="737" y1="115" y2="116"/>
<line fill="#000000" stroke="#000000" stroke-width="1" x1="733" x2="728" y1="118" y2="119"/>
<line fill="#000000" stroke="#000000" stroke-width="1" x1="723" x2="718" y1="120" y2="121"/>
<line fill="#000000" stroke="#000000" stroke-width="1" x1="713" x2="708" y1="123" y2="124"/>
<line fill="#000000" stroke="#000000" stroke-width="1" x1="703" x2="699" y1="125" y2="126"/>
<line fill="#000000" stroke="#000000" stroke-width="1" x1="694" x2="689" y1="128" y2="129"/>
<line fill="#000000" stroke="#000000" stroke-width="1" x1="684" x2="679" y1="130" y2="131"/>
<line fill="#000000" stroke="#000000" stroke-width="1" x1="674" x2="669" y1="133" y2="134"/>
<line fill="#000000" stroke="#000000" stroke-width="1" x1="676" x2="667" y1="125" y2="135"/>
<line fill="#000000" stroke="#000000" stroke-width="1" x1="680" x2="667" y1="138" y2="135"/>
<text font-family="Dialog" font-size="12" x="681" y="92">
&lt;&lt;extend&gt;&gt;</text>
<line fill="#000000" stroke="#000000" stroke-width="1" x1="738" x2="733" y1="161" y2="161"/>
<line fill="#000000" stroke="#000000" stroke-width="1" x1="728" x2="723" y1="160" y2="160"/>
<line fill="#000000" stroke="#000000" stroke-width="1" x1="718" x2="713" y1="159" y2="159"/>
<line fill="#000000" stroke="#000000" stroke-width="1" x1="708" x2="703" y1="158" y2="158"/>
<line fill="#000000" stroke="#000000" stroke-width="1" x1="698" x2="693" y1="157" y2="157"/>
<line fill="#000000" stroke="#000000" stroke-width="1" x1="688" x2="683" y1="156" y2="156"/>
<line fill="#000000" stroke="#000000" stroke-width="1" x1="691" x2="679" y1="149" y2="155"/>
<line fill="#000000" stroke="#000000" stroke-width="1" x1="690" x2="679" y1="163" y2="155"/>
<text font-family="Dialog" font-size="12" x="684" y="176">
&lt;&lt;extend&gt;&gt;</text>
<ellipse cx="729" cy="331" fill="#000000" rx="91.0" ry="29.0" stroke="#000000" stroke-width="1"/>
<ellipse cx="729" cy="331" fill="#ffffff" rx="90.0" ry="28.0" stroke="#ffffff" stroke-width="1"/>
<text font-family="Dialog" font-size="12" x="651" y="332">
UC10: Expand History Detail</text>
<line fill="#000000" stroke="#000000" stroke-width="1" x1="639" x2="634" y1="323" y2="323"/>
<line fill="#000000" stroke="#000000" stroke-width="1" x1="629" x2="624" y1="323" y2="323"/>
<line fill="#000000" stroke="#000000" stroke-width="1" x1="619" x2="614" y1="323" y2="323"/>
<line fill="#000000" stroke="#000000" stroke-width="1" x1="609" x2="604" y1="323" y2="323"/>
<line fill="#000000" stroke="#000000" stroke-width="1" x1="599" x2="594" y1="323" y2="323"/>
<line fill="#000000" stroke="#000000" stroke-width="1" x1="589" x2="584" y1="323" y2="323"/>
<line fill="#000000" stroke="#000000" stroke-width="1" x1="579" x2="574" y1="323" y2="323"/>
<line fill="#000000" stroke="#000000" stroke-width="1" x1="569" x2="564" y1="323" y2="323"/>
<line fill="#000000" stroke="#000000" stroke-width="1" x1="559" x2="554" y1="323" y2="323"/>
<line fill="#000000" stroke="#000000" stroke-width="1" x1="549" x2="544" y1="323" y2="323"/>
<line fill="#000000" stroke="#000000" stroke-width="1" x1="539" x2="534" y1="323" y2="323"/>
<line fill="#000000" stroke="#000000" stroke-width="1" x1="529" x2="524" y1="323" y2="323"/>
<line fill="#000000" stroke="#000000" stroke-width="1" x1="519" x2="515" y1="323" y2="323"/>
<line fill="#000000" stroke="#000000" stroke-width="1" x1="527" x2="515" y1="316" y2="323"/>
<line fill="#000000" stroke="#000000" stroke-width="1" x1="527" x2="515" y1="330" y2="323"/>
<text font-family="Dialog" font-size="12" x="563" y="351">
&lt;&lt;extend&gt;&gt;</text>
<ellipse cx="680" cy="415" fill="#000000" rx="74.0" ry="25.0" stroke="#000000" stroke-width="1"/>
<ellipse cx="680" cy="415" fill="#ffffff" rx="73.0" ry="24.0" stroke="#ffffff" stroke-width="1"/>
<text font-family="Dialog" font-size="12" x="621" y="416">
UC11: Search History</text>
<line fill="#000000" stroke="#000000" stroke-width="1" x1="633" x2="629" y1="395" y2="394"/>
<line fill="#000000" stroke="#000000" stroke-width="1" x1="624" x2="620" y1="392" y2="390"/>
<line fill="#000000" stroke="#000000" stroke-width="1" x1="615" x2="610" y1="388" y2="386"/>
<line fill="#000000" stroke="#000000" stroke-width="1" x1="606" x2="601" y1="384" y2="382"/>
<line fill="#000000" stroke="#000000" stroke-width="1" x1="596" x2="592" y1="380" y2="378"/>
<line fill="#000000" stroke="#000000" stroke-width="1" x1="587" x2="582" y1="377" y2="375"/>
<line fill="#000000" stroke="#000000" stroke-width="1" x1="578" x2="573" y1="373" y2="371"/>
<line fill="#000000" stroke="#000000" stroke-width="1" x1="569" x2="564" y1="369" y2="367"/>
<line fill="#000000" stroke="#000000" stroke-width="1" x1="559" x2="555" y1="365" y2="363"/>
<line fill="#000000" stroke="#000000" stroke-width="1" x1="550" x2="545" y1="361" y2="359"/>
<line fill="#000000" stroke="#000000" stroke-width="1" x1="541" x2="536" y1="358" y2="356"/>
<line fill="#000000" stroke="#000000" stroke-width="1" x1="531" x2="527" y1="354" y2="352"/>
<line fill="#000000" stroke="#000000" stroke-width="1" x1="522" x2="517" y1="350" y2="348"/>
<line fill="#000000" stroke="#000000" stroke-width="1" x1="513" x2="508" y1="346" y2="344"/>
<line fill="#000000" stroke="#000000" stroke-width="1" x1="504" x2="499" y1="342" y2="341"/>
<line fill="#000000" stroke="#000000" stroke-width="1" x1="494" x2="491" y1="339" y2="337"/>
<line fill="#000000" stroke="#000000" stroke-width="1" x1="504" x2="491" y1="335" y2="337"/>
<line fill="#000000" stroke="#000000" stroke-width="1" x1="499" x2="491" y1="348" y2="337"/>
<text font-family="Dialog" font-size="12" x="525" y="393">
&lt;&lt;extend&gt;&gt;</text>
<polygon fill="#ffffff" points="534,14 728,14 738,24 738,53 534,53 534,14" stroke="#ffffff" stroke-width="1"/>
<polyline fill="none" points="534,14 728,14 738,24 738,53 534,53 534,14" stroke="#000000" stroke-width="1"/>
<polygon fill="#ffffff" points="728,14 738,24 728,24 728,14" stroke="#ffffff" stroke-width="1"/>
<polyline fill="none" points="728,14 738,24 728,24 728,14" stroke="#000000" stroke-width="1"/>
<text font-family="Dialog" font-size="12" x="537" y="30">
Use Case Diagram for MAPme</text>
<text font-family="Dialog" font-size="12" x="537" y="46">
Authors: P.S. Sebeikin, D. G. Smith</text>
<ellipse cx="605" cy="244" fill="#000000" rx="95.0" ry="30.0" stroke="#000000" stroke-width="1"/>
<ellipse cx="605" cy="244" fill="#ffffff" rx="94.0" ry="29.0" stroke="#ffffff" stroke-width="1"/>
<text font-family="Dialog" font-size="12" x="523" y="245">
UC7: Capture Mandatroy Data</text>
<line fill="#000000" stroke="#000000" stroke-width="1" x1="450" x2="454" y1="203" y2="204"/>
<line fill="#000000" stroke="#000000" stroke-width="1" x1="459" x2="464" y1="205" y2="206"/>
<line fill="#000000" stroke="#000000" stroke-width="1" x1="469" x2="474" y1="208" y2="209"/>
<line fill="#000000" stroke="#000000" stroke-width="1" x1="479" x2="484" y1="210" y2="211"/>
<line fill="#000000" stroke="#000000" stroke-width="1" x1="489" x2="493" y1="213" y2="214"/>
<line fill="#000000" stroke="#000000" stroke-width="1" x1="498" x2="503" y1="215" y2="216"/>
<line fill="#000000" stroke="#000000" stroke-width="1" x1="508" x2="513" y1="218" y2="219"/>
<line fill="#000000" stroke="#000000" stroke-width="1" x1="518" x2="523" y1="220" y2="221"/>
<line fill="#000000" stroke="#000000" stroke-width="1" x1="528" x2="532" y1="223" y2="224"/>
<line fill="#000000" stroke="#000000" stroke-width="1" x1="518" x2="532" y1="227" y2="224"/>
<line fill="#000000" stroke="#000000" stroke-width="1" x1="522" x2="532" y1="214" y2="224"/>
<text font-family="Dialog" font-size="12" x="475" y="204">
&lt;&lt;include&gt;&gt;</text>
<ellipse cx="860" cy="251" fill="#000000" rx="94.0" ry="29.0" stroke="#000000" stroke-width="1"/>
<ellipse cx="860" cy="251" fill="#ffffff" rx="93.0" ry="28.0" stroke="#ffffff" stroke-width="1"/>
<text font-family="Dialog" font-size="12" x="780" y="252">
UC08: Capture Optional Data</text>
<line fill="#000000" stroke="#000000" stroke-width="1" x1="766" x2="761" y1="245" y2="245"/>
<line fill="#000000" stroke="#000000" stroke-width="1" x1="756" x2="751" y1="245" y2="245"/>
<line fill="#000000" stroke="#000000" stroke-width="1" x1="746" x2="741" y1="245" y2="245"/>
<line fill="#000000" stroke="#000000" stroke-width="1" x1="736" x2="731" y1="245" y2="245"/>
<line fill="#000000" stroke="#000000" stroke-width="1" x1="726" x2="721" y1="245" y2="245"/>
<line fill="#000000" stroke="#000000" stroke-width="1" x1="716" x2="711" y1="245" y2="245"/>
<line fill="#000000" stroke="#000000" stroke-width="1" x1="706" x2="701" y1="245" y2="245"/>
<line fill="#000000" stroke="#000000" stroke-width="1" x1="711" x2="699" y1="238" y2="245"/>
<line fill="#000000" stroke="#000000" stroke-width="1" x1="711" x2="699" y1="252" y2="245"/>
<text font-family="Dialog" font-size="12" x="705" y="262">
&lt;&lt;extend&gt;&gt;</text>
</svg>
